<svg id="visual" viewBox="0 0 900 600" width="900" height="600" xmlns="http://www.w3.org/2000/svg" xmlns:xlink="http://www.w3.org/1999/xlink" version="1.1"><path d="M0 109L12.5 119C25 129 50 149 75 157C100 165 125 161 150 153C175 145 200 133 225 139C250 145 275 169 300 175C325 181 350 169 375 161C400 153 425 149 450 140C475 131 500 117 525 123C550 129 575 155 600 169C625 183 650 185 675 182C700 179 725 171 750 176C775 181 800 199 825 196C850 193 875 169 887.5 157L900 145L900 0L887.5 0C875 0 850 0 825 0C800 0 775 0 750 0C725 0 700 0 675 0C650 0 625 0 600 0C575 0 550 0 525 0C500 0 475 0 450 0C425 0 400 0 375 0C350 0 325 0 300 0C275 0 250 0 225 0C200 0 175 0 150 0C125 0 100 0 75 0C50 0 25 0 12.5 0L0 0Z" fill="#7eaeff"></path><path d="M0 241L12.5 251C25 261 50 281 75 286C100 291 125 281 150 265C175 249 200 227 225 227C250 227 275 249 300 264C325 279 350 287 375 280C400 273 425 251 450 237C475 223 500 217 525 229C550 241 575 271 600 279C625 287 650 273 675 266C700 259 725 259 750 266C775 273 800 287 825 289C850 291 875 281 887.5 276L900 271L900 143L887.5 155C875 167 850 191 825 194C800 197 775 179 750 174C725 169 700 177 675 180C650 183 625 181 600 167C575 153 550 127 525 121C500 115 475 129 450 138C425 147 400 151 375 159C350 167 325 179 300 173C275 167 250 143 225 137C200 131 175 143 150 151C125 159 100 163 75 155C50 147 25 127 12.5 117L0 107Z" fill="#5f9cff"></path><path d="M0 319L12.5 324C25 329 50 339 75 346C100 353 125 357 150 346C175 335 200 309 225 306C250 303 275 323 300 333C325 343 350 343 375 332C400 321 425 299 450 291C475 283 500 289 525 303C550 317 575 339 600 347C625 355 650 349 675 341C700 333 725 323 750 329C775 335 800 357 825 365C850 373 875 367 887.5 364L900 361L900 269L887.5 274C875 279 850 289 825 287C800 285 775 271 750 264C725 257 700 257 675 264C650 271 625 285 600 277C575 269 550 239 525 227C500 215 475 221 450 235C425 249 400 271 375 278C350 285 325 277 300 262C275 247 250 225 225 225C200 225 175 247 150 263C125 279 100 289 75 284C50 279 25 259 12.5 249L0 239Z" fill="#3a89ff"></path><path d="M0 523L12.5 519C25 515 50 507 75 506C100 505 125 511 150 513C175 515 200 513 225 516C250 519 275 527 300 524C325 521 350 507 375 508C400 509 425 525 450 526C475 527 500 513 525 513C550 513 575 527 600 527C625 527 650 513 675 513C700 513 725 527 750 532C775 537 800 533 825 526C850 519 875 509 887.5 504L900 499L900 359L887.5 362C875 365 850 371 825 363C800 355 775 333 750 327C725 321 700 331 675 339C650 347 625 353 600 345C575 337 550 315 525 301C500 287 475 281 450 289C425 297 400 319 375 330C350 341 325 341 300 331C275 321 250 301 225 304C200 307 175 333 150 344C125 355 100 351 75 344C50 337 25 327 12.5 322L0 317Z" fill="#3276df"></path><path d="M0 601L12.5 601C25 601 50 601 75 601C100 601 125 601 150 601C175 601 200 601 225 601C250 601 275 601 300 601C325 601 350 601 375 601C400 601 425 601 450 601C475 601 500 601 525 601C550 601 575 601 600 601C625 601 650 601 675 601C700 601 725 601 750 601C775 601 800 601 825 601C850 601 875 601 887.5 601L900 601L900 497L887.5 502C875 507 850 517 825 524C800 531 775 535 750 530C725 525 700 511 675 511C650 511 625 525 600 525C575 525 550 511 525 511C500 511 475 525 450 524C425 523 400 507 375 506C350 505 325 519 300 522C275 525 250 517 225 514C200 511 175 513 150 511C125 509 100 503 75 504C50 505 25 513 12.5 517L0 521Z" fill="#2963c0"></path></svg>