<svg id="visual" viewBox="0 0 900 600" width="900" height="600" xmlns="http://www.w3.org/2000/svg" xmlns:xlink="http://www.w3.org/1999/xlink" version="1.1"><g stroke-width="1" stroke-linejoin="bevel"><path d="M494.9 281L574.7 239L493.9 240Z" fill="#c7c7c8" stroke="#c7c7c8"></path><path d="M494.9 281L563.7 322L574.7 239Z" fill="#4a4a4a" stroke="#4a4a4a"></path><path d="M494.9 396L566.7 362L563.7 322Z" fill="#c7c7c8" stroke="#c7c7c8"></path><path d="M563.7 322L632.5 326L574.7 239Z" fill="#343434" stroke="#343434"></path><path d="M566.7 362L632.5 326L563.7 322Z" fill="#e3e3e3" stroke="#e3e3e3"></path><path d="M574.7 239L486.9 149L493.9 240Z" fill="#929293" stroke="#929293"></path><path d="M493.9 240L385.1 287L494.9 281Z" fill="#070708" stroke="#070708"></path><path d="M647.5 133L572.7 131L574.7 239Z" fill="#1f1f1f" stroke="#1f1f1f"></path><path d="M574.7 239L572.7 131L486.9 149Z" fill="#070708" stroke="#070708"></path><path d="M427.1 384L494.9 396L494.9 281Z" fill="#ffffff" stroke="#ffffff"></path><path d="M494.9 281L494.9 396L563.7 322Z" fill="#1f1f1f" stroke="#1f1f1f"></path><path d="M632.5 326L676.5 214L574.7 239Z" fill="#616162" stroke="#616162"></path><path d="M386.1 226L385.1 287L493.9 240Z" fill="#e3e3e3" stroke="#e3e3e3"></path><path d="M486.9 149L386.1 226L493.9 240Z" fill="#616162" stroke="#616162"></path><path d="M566.7 362L653.5 361L632.5 326Z" fill="#616162" stroke="#616162"></path><path d="M632.5 326L718.4 239L676.5 214Z" fill="#070708" stroke="#070708"></path><path d="M644.5 435L653.5 361L566.7 362Z" fill="#4a4a4a" stroke="#4a4a4a"></path><path d="M385.1 287L427.1 384L494.9 281Z" fill="#4a4a4a" stroke="#4a4a4a"></path><path d="M489.9 83L420.1 137L486.9 149Z" fill="#e3e3e3" stroke="#e3e3e3"></path><path d="M486.9 149L420.1 137L386.1 226Z" fill="#4a4a4a" stroke="#4a4a4a"></path><path d="M676.5 214L647.5 133L574.7 239Z" fill="#ffffff" stroke="#ffffff"></path><path d="M647.5 133L592.7 98L572.7 131Z" fill="#ffffff" stroke="#ffffff"></path><path d="M572.7 131L489.9 83L486.9 149Z" fill="#4a4a4a" stroke="#4a4a4a"></path><path d="M592.7 98L489.9 83L572.7 131Z" fill="#c7c7c8" stroke="#c7c7c8"></path><path d="M742.4 281L718.4 239L632.5 326Z" fill="#616162" stroke="#616162"></path><path d="M676.5 214L724.4 144L647.5 133Z" fill="#1f1f1f" stroke="#1f1f1f"></path><path d="M499.9 467L573.7 450L494.9 396Z" fill="#ffffff" stroke="#ffffff"></path><path d="M494.9 396L573.7 450L566.7 362Z" fill="#929293" stroke="#929293"></path><path d="M341.3 367L433.1 432L427.1 384Z" fill="#e3e3e3" stroke="#e3e3e3"></path><path d="M427.1 384L433.1 432L494.9 396Z" fill="#79797a" stroke="#79797a"></path><path d="M303.3 154L332.3 242L386.1 226Z" fill="#343434" stroke="#343434"></path><path d="M386.1 226L332.3 242L385.1 287Z" fill="#ffffff" stroke="#ffffff"></path><path d="M385.1 287L341.3 367L427.1 384Z" fill="#616162" stroke="#616162"></path><path d="M573.7 450L644.5 435L566.7 362Z" fill="#c7c7c8" stroke="#c7c7c8"></path><path d="M724.4 349L742.4 281L632.5 326Z" fill="#acacad" stroke="#acacad"></path><path d="M724.4 349L632.5 326L653.5 361Z" fill="#929293" stroke="#929293"></path><path d="M644.5 435L724.4 349L653.5 361Z" fill="#e3e3e3" stroke="#e3e3e3"></path><path d="M433.1 432L499.9 467L494.9 396Z" fill="#ffffff" stroke="#ffffff"></path><path d="M710.4 521L710.4 465L644.5 435Z" fill="#79797a" stroke="#79797a"></path><path d="M302.3 300L341.3 367L385.1 287Z" fill="#070708" stroke="#070708"></path><path d="M718.4 239L724.4 144L676.5 214Z" fill="#070708" stroke="#070708"></path><path d="M647.5 133L659.5 57L592.7 98Z" fill="#4a4a4a" stroke="#4a4a4a"></path><path d="M838.2 200L724.4 144L718.4 239Z" fill="#79797a" stroke="#79797a"></path><path d="M332.3 242L302.3 300L385.1 287Z" fill="#343434" stroke="#343434"></path><path d="M724.4 144L659.5 57L647.5 133Z" fill="#e3e3e3" stroke="#e3e3e3"></path><path d="M592.7 98L558.7 0L489.9 83Z" fill="#929293" stroke="#929293"></path><path d="M489.9 83L412.1 52L420.1 137Z" fill="#343434" stroke="#343434"></path><path d="M420.1 137L303.3 154L386.1 226Z" fill="#929293" stroke="#929293"></path><path d="M332.3 242L268.5 222L302.3 300Z" fill="#1f1f1f" stroke="#1f1f1f"></path><path d="M467.9 0L412.1 52L489.9 83Z" fill="#ffffff" stroke="#ffffff"></path><path d="M345.3 71L303.3 154L420.1 137Z" fill="#acacad" stroke="#acacad"></path><path d="M646.5 0L558.7 0L592.7 98Z" fill="#e3e3e3" stroke="#e3e3e3"></path><path d="M386.1 0L345.3 71L412.1 52Z" fill="#ffffff" stroke="#ffffff"></path><path d="M412.1 52L345.3 71L420.1 137Z" fill="#e3e3e3" stroke="#e3e3e3"></path><path d="M558.7 0L467.9 0L489.9 83Z" fill="#616162" stroke="#616162"></path><path d="M229.5 137L268.5 222L303.3 154Z" fill="#ffffff" stroke="#ffffff"></path><path d="M303.3 154L268.5 222L332.3 242Z" fill="#acacad" stroke="#acacad"></path><path d="M420.1 519L488.9 525L499.9 467Z" fill="#4a4a4a" stroke="#4a4a4a"></path><path d="M499.9 467L555.7 544L573.7 450Z" fill="#929293" stroke="#929293"></path><path d="M420.1 519L499.9 467L433.1 432Z" fill="#c7c7c8" stroke="#c7c7c8"></path><path d="M644.5 435L710.4 465L724.4 349Z" fill="#79797a" stroke="#79797a"></path><path d="M724.4 349L828.2 287L742.4 281Z" fill="#acacad" stroke="#acacad"></path><path d="M629.5 549L644.5 435L573.7 450Z" fill="#acacad" stroke="#acacad"></path><path d="M726.4 0L646.5 0L659.5 57Z" fill="#1f1f1f" stroke="#1f1f1f"></path><path d="M659.5 57L646.5 0L592.7 98Z" fill="#070708" stroke="#070708"></path><path d="M327.3 456L433.1 432L341.3 367Z" fill="#929293" stroke="#929293"></path><path d="M327.3 456L420.1 519L433.1 432Z" fill="#070708" stroke="#070708"></path><path d="M813.2 99L740.4 62L724.4 144Z" fill="#1f1f1f" stroke="#1f1f1f"></path><path d="M724.4 144L740.4 62L659.5 57Z" fill="#4a4a4a" stroke="#4a4a4a"></path><path d="M579.7 600L555.7 544L475.9 600Z" fill="#4a4a4a" stroke="#4a4a4a"></path><path d="M488.9 525L555.7 544L499.9 467Z" fill="#343434" stroke="#343434"></path><path d="M238.5 430L327.3 456L341.3 367Z" fill="#79797a" stroke="#79797a"></path><path d="M232.5 360L341.3 367L302.3 300Z" fill="#ffffff" stroke="#ffffff"></path><path d="M268.5 222L246.5 300L302.3 300Z" fill="#ffffff" stroke="#ffffff"></path><path d="M811.2 392L828.2 287L724.4 349Z" fill="#79797a" stroke="#79797a"></path><path d="M742.4 281L838.2 200L718.4 239Z" fill="#c7c7c8" stroke="#c7c7c8"></path><path d="M467.9 0L386.1 0L412.1 52Z" fill="#c7c7c8" stroke="#c7c7c8"></path><path d="M555.7 544L629.5 549L573.7 450Z" fill="#79797a" stroke="#79797a"></path><path d="M796.2 466L811.2 392L710.4 465Z" fill="#929293" stroke="#929293"></path><path d="M710.4 465L811.2 392L724.4 349Z" fill="#ffffff" stroke="#ffffff"></path><path d="M828.2 287L838.2 200L742.4 281Z" fill="#343434" stroke="#343434"></path><path d="M838.2 200L825.2 143L724.4 144Z" fill="#79797a" stroke="#79797a"></path><path d="M629.5 549L710.4 521L644.5 435Z" fill="#616162" stroke="#616162"></path><path d="M246.5 300L232.5 360L302.3 300Z" fill="#070708" stroke="#070708"></path><path d="M825.2 143L813.2 99L724.4 144Z" fill="#343434" stroke="#343434"></path><path d="M740.4 62L726.4 0L659.5 57Z" fill="#929293" stroke="#929293"></path><path d="M803.2 0L726.4 0L740.4 62Z" fill="#4a4a4a" stroke="#4a4a4a"></path><path d="M386.1 0L342.3 0L345.3 71Z" fill="#e3e3e3" stroke="#e3e3e3"></path><path d="M228.5 79L229.5 137L303.3 154Z" fill="#acacad" stroke="#acacad"></path><path d="M228.5 79L303.3 154L345.3 71Z" fill="#e3e3e3" stroke="#e3e3e3"></path><path d="M268.5 222L187.6 247L246.5 300Z" fill="#1f1f1f" stroke="#1f1f1f"></path><path d="M246.5 300L176.6 301L232.5 360Z" fill="#929293" stroke="#929293"></path><path d="M710.4 521L796.2 466L710.4 465Z" fill="#616162" stroke="#616162"></path><path d="M244.5 517L339.3 536L327.3 456Z" fill="#929293" stroke="#929293"></path><path d="M327.3 456L339.3 536L420.1 519Z" fill="#c7c7c8" stroke="#c7c7c8"></path><path d="M475.9 600L555.7 544L488.9 525Z" fill="#929293" stroke="#929293"></path><path d="M555.7 544L579.7 600L629.5 549Z" fill="#1f1f1f" stroke="#1f1f1f"></path><path d="M232.5 360L238.5 430L341.3 367Z" fill="#e3e3e3" stroke="#e3e3e3"></path><path d="M629.5 549L667.5 600L710.4 521Z" fill="#acacad" stroke="#acacad"></path><path d="M475.9 600L488.9 525L420.1 519Z" fill="#070708" stroke="#070708"></path><path d="M392.1 600L475.9 600L420.1 519Z" fill="#c7c7c8" stroke="#c7c7c8"></path><path d="M176.6 173L187.6 247L268.5 222Z" fill="#4a4a4a" stroke="#4a4a4a"></path><path d="M232.5 360L178.6 425L238.5 430Z" fill="#acacad" stroke="#acacad"></path><path d="M229.5 0L228.5 79L345.3 71Z" fill="#1f1f1f" stroke="#1f1f1f"></path><path d="M229.5 137L176.6 173L268.5 222Z" fill="#ffffff" stroke="#ffffff"></path><path d="M187.6 247L176.6 301L246.5 300Z" fill="#e3e3e3" stroke="#e3e3e3"></path><path d="M579.7 600L667.5 600L629.5 549Z" fill="#929293" stroke="#929293"></path><path d="M710.4 521L837.2 517L796.2 466Z" fill="#acacad" stroke="#acacad"></path><path d="M828.2 287L900 251L838.2 200Z" fill="#79797a" stroke="#79797a"></path><path d="M838.2 200L900 152L825.2 143Z" fill="#e3e3e3" stroke="#e3e3e3"></path><path d="M825.2 143L900 152L813.2 99Z" fill="#ffffff" stroke="#ffffff"></path><path d="M900 288L900 251L828.2 287Z" fill="#070708" stroke="#070708"></path><path d="M900 288L828.2 287L900 387Z" fill="#1f1f1f" stroke="#1f1f1f"></path><path d="M900 387L828.2 287L811.2 392Z" fill="#1f1f1f" stroke="#1f1f1f"></path><path d="M141.6 75L176.6 173L229.5 137Z" fill="#4a4a4a" stroke="#4a4a4a"></path><path d="M187.6 247L103.8 244L176.6 301Z" fill="#4a4a4a" stroke="#4a4a4a"></path><path d="M320.3 600L392.1 600L339.3 536Z" fill="#1f1f1f" stroke="#1f1f1f"></path><path d="M339.3 536L392.1 600L420.1 519Z" fill="#4a4a4a" stroke="#4a4a4a"></path><path d="M900 62L803.2 0L813.2 99Z" fill="#e3e3e3" stroke="#e3e3e3"></path><path d="M813.2 99L803.2 0L740.4 62Z" fill="#929293" stroke="#929293"></path><path d="M900 251L900 152L838.2 200Z" fill="#343434" stroke="#343434"></path><path d="M667.5 600L714.4 600L710.4 521Z" fill="#343434" stroke="#343434"></path><path d="M900 448L811.2 392L796.2 466Z" fill="#acacad" stroke="#acacad"></path><path d="M900 448L900 387L811.2 392Z" fill="#929293" stroke="#929293"></path><path d="M178.6 425L244.5 517L238.5 430Z" fill="#ffffff" stroke="#ffffff"></path><path d="M238.5 430L244.5 517L327.3 456Z" fill="#616162" stroke="#616162"></path><path d="M151.6 351L178.6 425L232.5 360Z" fill="#070708" stroke="#070708"></path><path d="M98.8 352L151.6 351L176.6 301Z" fill="#616162" stroke="#616162"></path><path d="M176.6 301L151.6 351L232.5 360Z" fill="#1f1f1f" stroke="#1f1f1f"></path><path d="M825.2 600L837.2 517L710.4 521Z" fill="#343434" stroke="#343434"></path><path d="M342.3 0L229.5 0L345.3 71Z" fill="#acacad" stroke="#acacad"></path><path d="M228.5 79L141.6 75L229.5 137Z" fill="#1f1f1f" stroke="#1f1f1f"></path><path d="M254.5 600L320.3 600L339.3 536Z" fill="#616162" stroke="#616162"></path><path d="M837.2 517L900 448L796.2 466Z" fill="#1f1f1f" stroke="#1f1f1f"></path><path d="M900 152L900 62L813.2 99Z" fill="#4a4a4a" stroke="#4a4a4a"></path><path d="M87.8 131L103.8 244L176.6 173Z" fill="#c7c7c8" stroke="#c7c7c8"></path><path d="M176.6 173L103.8 244L187.6 247Z" fill="#acacad" stroke="#acacad"></path><path d="M151.6 351L98.8 352L178.6 425Z" fill="#acacad" stroke="#acacad"></path><path d="M157.6 0L141.6 75L228.5 79Z" fill="#343434" stroke="#343434"></path><path d="M157.6 600L254.5 600L244.5 517Z" fill="#acacad" stroke="#acacad"></path><path d="M244.5 517L254.5 600L339.3 536Z" fill="#1f1f1f" stroke="#1f1f1f"></path><path d="M64.8 309L98.8 352L176.6 301Z" fill="#070708" stroke="#070708"></path><path d="M178.6 425L137.6 513L244.5 517Z" fill="#acacad" stroke="#acacad"></path><path d="M714.4 600L825.2 600L710.4 521Z" fill="#929293" stroke="#929293"></path><path d="M837.2 517L900 525L900 448Z" fill="#929293" stroke="#929293"></path><path d="M900 62L900 0L803.2 0Z" fill="#4a4a4a" stroke="#4a4a4a"></path><path d="M900 600L900 525L837.2 517Z" fill="#79797a" stroke="#79797a"></path><path d="M229.5 0L157.6 0L228.5 79Z" fill="#ffffff" stroke="#ffffff"></path><path d="M141.6 75L87.8 131L176.6 173Z" fill="#acacad" stroke="#acacad"></path><path d="M90.8 67L87.8 131L141.6 75Z" fill="#acacad" stroke="#acacad"></path><path d="M103.8 244L64.8 309L176.6 301Z" fill="#616162" stroke="#616162"></path><path d="M105.8 523L137.6 513L60.8 453Z" fill="#ffffff" stroke="#ffffff"></path><path d="M0 274L64.8 309L103.8 244Z" fill="#616162" stroke="#616162"></path><path d="M60.8 453L137.6 513L178.6 425Z" fill="#616162" stroke="#616162"></path><path d="M96.8 0L90.8 67L141.6 75Z" fill="#616162" stroke="#616162"></path><path d="M0 230L0 274L103.8 244Z" fill="#1f1f1f" stroke="#1f1f1f"></path><path d="M825.2 600L900 600L837.2 517Z" fill="#e3e3e3" stroke="#e3e3e3"></path><path d="M60.8 453L178.6 425L98.8 352Z" fill="#929293" stroke="#929293"></path><path d="M137.6 513L157.6 600L244.5 517Z" fill="#c7c7c8" stroke="#c7c7c8"></path><path d="M105.8 523L157.6 600L137.6 513Z" fill="#4a4a4a" stroke="#4a4a4a"></path><path d="M157.6 0L96.8 0L141.6 75Z" fill="#4a4a4a" stroke="#4a4a4a"></path><path d="M0 230L103.8 244L87.8 131Z" fill="#e3e3e3" stroke="#e3e3e3"></path><path d="M0 400L60.8 453L98.8 352Z" fill="#e3e3e3" stroke="#e3e3e3"></path><path d="M0 230L87.8 131L0 139Z" fill="#070708" stroke="#070708"></path><path d="M64.8 309L0 400L98.8 352Z" fill="#acacad" stroke="#acacad"></path><path d="M0 139L87.8 131L90.8 67Z" fill="#e3e3e3" stroke="#e3e3e3"></path><path d="M0 50L0 139L90.8 67Z" fill="#79797a" stroke="#79797a"></path><path d="M0 274L0 400L64.8 309Z" fill="#616162" stroke="#616162"></path><path d="M0 508L91.8 600L105.8 523Z" fill="#ffffff" stroke="#ffffff"></path><path d="M105.8 523L91.8 600L157.6 600Z" fill="#343434" stroke="#343434"></path><path d="M0 508L105.8 523L60.8 453Z" fill="#c7c7c8" stroke="#c7c7c8"></path><path d="M0 400L0 450L60.8 453Z" fill="#e3e3e3" stroke="#e3e3e3"></path><path d="M96.8 0L0 50L90.8 67Z" fill="#ffffff" stroke="#ffffff"></path><path d="M0 450L0 508L60.8 453Z" fill="#616162" stroke="#616162"></path><path d="M96.8 0L0 0L0 50Z" fill="#e3e3e3" stroke="#e3e3e3"></path><path d="M0 508L0 600L91.8 600Z" fill="#c7c7c8" stroke="#c7c7c8"></path></g></svg>