<svg id="visual" viewBox="0 0 900 600" width="900" height="600" xmlns="http://www.w3.org/2000/svg" xmlns:xlink="http://www.w3.org/1999/xlink" version="1.1"><g stroke-width="1" stroke-linejoin="bevel"><path d="M507 293L584 266L498 222Z" fill="#bddeff" stroke="#bddeff"></path><path d="M584 266L605 224L498 222Z" fill="#ffffff" stroke="#ffffff"></path><path d="M584 266L666 232L605 224Z" fill="#49b6ff" stroke="#49b6ff"></path><path d="M593 96L462 139L498 222Z" fill="#eff7ff" stroke="#eff7ff"></path><path d="M498 222L374 234L507 293Z" fill="#bddeff" stroke="#bddeff"></path><path d="M593 96L498 222L605 224Z" fill="#82c6ff" stroke="#82c6ff"></path><path d="M507 293L584 394L584 266Z" fill="#ffffff" stroke="#ffffff"></path><path d="M584 266L688 304L666 232Z" fill="#69beff" stroke="#69beff"></path><path d="M584 394L688 304L584 266Z" fill="#69beff" stroke="#69beff"></path><path d="M462 139L374 234L498 222Z" fill="#abd6ff" stroke="#abd6ff"></path><path d="M507 293L530 430L584 394Z" fill="#abd6ff" stroke="#abd6ff"></path><path d="M666 232L593 96L605 224Z" fill="#abd6ff" stroke="#abd6ff"></path><path d="M384 398L530 430L507 293Z" fill="#dfeeff" stroke="#dfeeff"></path><path d="M374 234L372 322L507 293Z" fill="#97ceff" stroke="#97ceff"></path><path d="M475 0L411 91L462 139Z" fill="#ffffff" stroke="#ffffff"></path><path d="M462 139L411 91L374 234Z" fill="#bddeff" stroke="#bddeff"></path><path d="M372 322L384 398L507 293Z" fill="#97ceff" stroke="#97ceff"></path><path d="M411 91L326 215L374 234Z" fill="#eff7ff" stroke="#eff7ff"></path><path d="M374 234L323 299L372 322Z" fill="#dfeeff" stroke="#dfeeff"></path><path d="M372 322L336 384L384 398Z" fill="#97ceff" stroke="#97ceff"></path><path d="M326 215L323 299L374 234Z" fill="#ffffff" stroke="#ffffff"></path><path d="M584 394L693 414L688 304Z" fill="#97ceff" stroke="#97ceff"></path><path d="M636 480L693 414L584 394Z" fill="#bddeff" stroke="#bddeff"></path><path d="M323 299L336 384L372 322Z" fill="#97ceff" stroke="#97ceff"></path><path d="M802 137L691 63L666 232Z" fill="#dfeeff" stroke="#dfeeff"></path><path d="M666 232L691 63L593 96Z" fill="#97ceff" stroke="#97ceff"></path><path d="M593 96L475 0L462 139Z" fill="#49b6ff" stroke="#49b6ff"></path><path d="M795 227L666 232L688 304Z" fill="#cee6ff" stroke="#cee6ff"></path><path d="M580 600L636 480L530 430Z" fill="#eff7ff" stroke="#eff7ff"></path><path d="M530 430L636 480L584 394Z" fill="#ffffff" stroke="#ffffff"></path><path d="M463 530L530 430L384 398Z" fill="#eff7ff" stroke="#eff7ff"></path><path d="M691 63L562 0L593 96Z" fill="#97ceff" stroke="#97ceff"></path><path d="M815 304L795 227L688 304Z" fill="#dfeeff" stroke="#dfeeff"></path><path d="M562 0L475 0L593 96Z" fill="#69beff" stroke="#69beff"></path><path d="M475 0L423 0L411 91Z" fill="#82c6ff" stroke="#82c6ff"></path><path d="M411 91L277 77L326 215Z" fill="#eff7ff" stroke="#eff7ff"></path><path d="M693 414L815 304L688 304Z" fill="#ffffff" stroke="#ffffff"></path><path d="M836 381L815 304L693 414Z" fill="#97ceff" stroke="#97ceff"></path><path d="M403 523L463 530L384 398Z" fill="#abd6ff" stroke="#abd6ff"></path><path d="M795 227L802 137L666 232Z" fill="#69beff" stroke="#69beff"></path><path d="M900 226L802 137L795 227Z" fill="#cee6ff" stroke="#cee6ff"></path><path d="M270 505L403 523L384 398Z" fill="#82c6ff" stroke="#82c6ff"></path><path d="M786 0L703 0L691 63Z" fill="#dfeeff" stroke="#dfeeff"></path><path d="M691 63L703 0L562 0Z" fill="#97ceff" stroke="#97ceff"></path><path d="M287 0L277 77L411 91Z" fill="#00aeff" stroke="#00aeff"></path><path d="M326 215L202 330L323 299Z" fill="#97ceff" stroke="#97ceff"></path><path d="M323 299L231 393L336 384Z" fill="#eff7ff" stroke="#eff7ff"></path><path d="M277 77L235 164L326 215Z" fill="#82c6ff" stroke="#82c6ff"></path><path d="M779 525L836 381L693 414Z" fill="#69beff" stroke="#69beff"></path><path d="M815 304L900 226L795 227Z" fill="#dfeeff" stroke="#dfeeff"></path><path d="M636 480L709 537L693 414Z" fill="#ffffff" stroke="#ffffff"></path><path d="M686 600L709 537L636 480Z" fill="#abd6ff" stroke="#abd6ff"></path><path d="M202 330L231 393L323 299Z" fill="#82c6ff" stroke="#82c6ff"></path><path d="M336 384L270 505L384 398Z" fill="#00aeff" stroke="#00aeff"></path><path d="M235 164L202 330L326 215Z" fill="#00aeff" stroke="#00aeff"></path><path d="M483 600L580 600L463 530Z" fill="#ffffff" stroke="#ffffff"></path><path d="M463 530L580 600L530 430Z" fill="#82c6ff" stroke="#82c6ff"></path><path d="M433 600L463 530L403 523Z" fill="#cee6ff" stroke="#cee6ff"></path><path d="M433 600L483 600L463 530Z" fill="#abd6ff" stroke="#abd6ff"></path><path d="M423 0L287 0L411 91Z" fill="#eff7ff" stroke="#eff7ff"></path><path d="M277 77L188 86L235 164Z" fill="#69beff" stroke="#69beff"></path><path d="M900 80L786 0L802 137Z" fill="#00aeff" stroke="#00aeff"></path><path d="M802 137L786 0L691 63Z" fill="#dfeeff" stroke="#dfeeff"></path><path d="M336 600L433 600L403 523Z" fill="#49b6ff" stroke="#49b6ff"></path><path d="M709 537L779 525L693 414Z" fill="#eff7ff" stroke="#eff7ff"></path><path d="M686 600L779 525L709 537Z" fill="#00aeff" stroke="#00aeff"></path><path d="M900 327L815 304L836 381Z" fill="#97ceff" stroke="#97ceff"></path><path d="M900 327L900 226L815 304Z" fill="#bddeff" stroke="#bddeff"></path><path d="M231 393L270 505L336 384Z" fill="#82c6ff" stroke="#82c6ff"></path><path d="M187 530L270 505L231 393Z" fill="#69beff" stroke="#69beff"></path><path d="M900 419L900 327L836 381Z" fill="#82c6ff" stroke="#82c6ff"></path><path d="M580 600L686 600L636 480Z" fill="#ffffff" stroke="#ffffff"></path><path d="M234 0L188 86L277 77Z" fill="#dfeeff" stroke="#dfeeff"></path><path d="M235 164L139 280L202 330Z" fill="#49b6ff" stroke="#49b6ff"></path><path d="M287 0L234 0L277 77Z" fill="#82c6ff" stroke="#82c6ff"></path><path d="M132 215L139 280L235 164Z" fill="#82c6ff" stroke="#82c6ff"></path><path d="M125 471L187 530L231 393Z" fill="#bddeff" stroke="#bddeff"></path><path d="M779 525L900 419L836 381Z" fill="#82c6ff" stroke="#82c6ff"></path><path d="M270 505L336 600L403 523Z" fill="#49b6ff" stroke="#49b6ff"></path><path d="M900 226L900 80L802 137Z" fill="#82c6ff" stroke="#82c6ff"></path><path d="M115 128L132 215L235 164Z" fill="#bddeff" stroke="#bddeff"></path><path d="M132 0L115 128L188 86Z" fill="#97ceff" stroke="#97ceff"></path><path d="M188 86L115 128L235 164Z" fill="#97ceff" stroke="#97ceff"></path><path d="M0 286L103 419L139 280Z" fill="#bddeff" stroke="#bddeff"></path><path d="M900 80L900 0L786 0Z" fill="#69beff" stroke="#69beff"></path><path d="M103 419L231 393L202 330Z" fill="#82c6ff" stroke="#82c6ff"></path><path d="M270 505L173 600L336 600Z" fill="#00aeff" stroke="#00aeff"></path><path d="M837 600L900 512L779 525Z" fill="#ffffff" stroke="#ffffff"></path><path d="M779 525L900 512L900 419Z" fill="#00aeff" stroke="#00aeff"></path><path d="M686 600L837 600L779 525Z" fill="#49b6ff" stroke="#49b6ff"></path><path d="M0 286L139 280L132 215Z" fill="#ffffff" stroke="#ffffff"></path><path d="M139 280L103 419L202 330Z" fill="#00aeff" stroke="#00aeff"></path><path d="M103 419L125 471L231 393Z" fill="#cee6ff" stroke="#cee6ff"></path><path d="M234 0L132 0L188 86Z" fill="#49b6ff" stroke="#49b6ff"></path><path d="M84 600L187 530L125 471Z" fill="#abd6ff" stroke="#abd6ff"></path><path d="M84 600L173 600L187 530Z" fill="#ffffff" stroke="#ffffff"></path><path d="M187 530L173 600L270 505Z" fill="#82c6ff" stroke="#82c6ff"></path><path d="M837 600L900 600L900 512Z" fill="#eff7ff" stroke="#eff7ff"></path><path d="M0 205L0 286L132 215Z" fill="#97ceff" stroke="#97ceff"></path><path d="M103 419L0 469L125 471Z" fill="#bddeff" stroke="#bddeff"></path><path d="M0 205L132 215L115 128Z" fill="#bddeff" stroke="#bddeff"></path><path d="M0 84L0 205L115 128Z" fill="#82c6ff" stroke="#82c6ff"></path><path d="M0 286L0 409L103 419Z" fill="#ffffff" stroke="#ffffff"></path><path d="M132 0L0 84L115 128Z" fill="#ffffff" stroke="#ffffff"></path><path d="M0 469L84 600L125 471Z" fill="#69beff" stroke="#69beff"></path><path d="M0 409L0 469L103 419Z" fill="#00aeff" stroke="#00aeff"></path><path d="M132 0L0 0L0 84Z" fill="#dfeeff" stroke="#dfeeff"></path><path d="M0 469L0 600L84 600Z" fill="#97ceff" stroke="#97ceff"></path></g></svg>